<svg width="261" height="48" viewBox="0 0 261 48" fill="none" xmlns="http://www.w3.org/2000/svg">
<path d="M33.1444 35.418C31.4939 32.4944 30.2319 30.4598 29.3193 29.0573C34.9501 26.9042 38.8917 21.9066 38.8917 15.3484C38.8917 3.75316 29.5523 0 20.407 0H0V47.2108H9.55304V30.203H14.1936C14.9315 30.203 15.6499 30.203 16.3683 30.2426C17.4945 30.3216 19.4167 30.8352 20.8342 33.1463C22.3098 35.6155 23.0865 37.2945 25.2806 41.0082C27.7077 45.0972 30.1348 47.9812 34.4453 47.9812C39.8626 47.9812 40.6004 42.628 40.6004 42.628C37.2025 41.502 34.7754 38.302 33.1444 35.3982V35.418ZM21.4167 22.5782H9.55304V8.49399H21.4167C25.7854 8.49399 28.9309 10.9237 28.9309 15.5657C28.9309 19.9312 25.7854 22.5782 21.4167 22.5782ZM51.9592 0.0197534V47.2305H61.5122V7.22977C61.5122 -0.296302 51.9592 0.0197534 51.9592 0.0197534ZM104.947 0.0197534V26.6079C104.947 33.8969 102.617 38.9736 94.9479 38.9736C87.2782 38.9736 85.1618 33.8969 85.1618 26.6277V7.22977C85.1618 -0.296302 75.6088 0.0197534 75.6088 0.0197534V27.2993C75.6088 39.3094 81.0843 47.9812 94.9479 47.9812C108.811 47.9812 114.501 38.4007 114.501 27.2993V0.0197534H104.947Z" fill="#E4002B"/>
<path d="M160.773 39.5228C162.003 40.6719 162.599 41.4819 162.599 41.9717C162.599 42.3673 162.376 42.8006 161.947 43.2904C161.239 44.0816 160.214 44.8728 158.835 45.6452C157.456 46.4176 155.984 47.0016 154.418 47.3972C152.853 47.7928 151.194 48 149.442 48C143.33 48 138.633 46.0031 135.372 42.0094C132.111 38.0157 130.452 32.3642 130.452 25.0361C130.452 17.708 132.129 12.0754 135.503 8.02512C138.857 3.97488 143.647 1.94035 149.834 1.94035C152.238 1.94035 154.455 2.33595 156.505 3.12716C158.555 3.91837 160.289 5.02983 161.686 6.4427C162.208 6.97017 162.469 7.47881 162.469 7.9686C162.469 8.4584 162.04 9.21193 161.164 10.2292H160.438C159.17 8.68446 157.605 7.47881 155.723 6.61224C153.84 5.74568 151.809 5.3124 149.629 5.3124C144.69 5.3124 140.944 7.02669 138.373 10.4364C135.801 13.865 134.515 18.7253 134.515 25.0361C134.515 31.3469 135.819 36.1507 138.447 39.5981C141.075 43.0455 144.858 44.7598 149.834 44.7598C152.666 44.7598 155.331 43.8932 157.829 42.179C159.003 41.3312 159.99 40.4647 160.773 39.5228Z" fill="#2A2829"/>
<path d="M170.464 0.0753532C170.725 0.0376766 170.948 0 171.116 0C172.085 0 172.849 0.282575 173.408 0.866562C173.967 1.43171 174.266 2.27944 174.266 3.3909V40.898C174.266 42.0094 174.359 42.876 174.564 43.5542C174.769 44.2323 175.086 44.7033 175.551 45.0047C176.017 45.3061 176.707 45.5133 177.62 45.6075V47.0016C176.781 47.2276 175.887 47.3407 174.936 47.3407C173.893 47.3407 173.036 47.1334 172.383 46.719C171.731 46.3046 171.247 45.6452 170.948 44.7598C170.65 43.8744 170.482 42.4615 170.482 40.5212V0.0753532H170.464Z" fill="#2A2829"/>
<path d="M210.084 47.0016C209.208 47.2276 208.425 47.3407 207.717 47.3407C206.226 47.3407 205.052 46.9827 204.176 46.248C203.301 45.5133 202.816 44.4961 202.741 43.1774C199.816 46.135 196.275 47.6044 192.138 47.6044C189.174 47.6044 186.826 46.832 185.093 45.2873C183.36 43.7425 182.503 41.5196 182.503 38.5997C182.503 36.2637 183.192 34.2857 184.59 32.6656C185.988 31.0644 188.019 29.821 190.684 28.9545C193.349 28.0879 196.349 27.6546 199.722 27.6546C200.244 27.6546 200.747 27.6546 201.232 27.6923C201.716 27.7111 202.182 27.7488 202.667 27.7865V26.2041C202.667 23.6044 202.071 21.7206 200.859 20.5526C199.666 19.3846 197.728 18.8006 195.063 18.8006C193.312 18.8006 191.653 19.0455 190.088 19.5353C188.522 20.0251 187.162 20.7033 186.025 21.5887H185.429C184.814 20.7033 184.515 19.9874 184.515 19.4035C184.515 18.8195 185.074 18.2355 186.211 17.6138C187.311 16.9922 188.69 16.5024 190.404 16.1256C192.119 15.7488 193.759 15.5604 195.38 15.5604C199.312 15.5604 202.126 16.427 203.86 18.1413C205.574 19.8556 206.45 22.7567 206.45 26.8069V40.0502C206.45 41.2936 206.543 42.292 206.711 43.0644C206.879 43.8367 207.195 44.4207 207.624 44.8163C208.053 45.2119 208.873 45.4568 210.047 45.551V47.0016H210.084ZM202.741 30.5181C202.481 30.4804 202.201 30.4427 201.921 30.4427H201.046C191.318 30.4427 186.435 33.1177 186.435 38.449C186.435 40.3516 186.975 41.821 188.038 42.876C189.1 43.9309 190.684 44.4584 192.79 44.4584C194.448 44.4584 196.032 44.157 197.542 43.5353C199.051 42.9137 200.3 42.179 201.269 41.3124C202.257 40.4458 202.741 39.73 202.741 39.1648V30.4992V30.5181Z" fill="#2A2829"/>
<path d="M224.415 18.7253C222.496 18.7253 220.912 19.1774 219.663 20.0816C218.414 20.9859 217.799 22.2292 217.799 23.8305C217.799 24.6782 218.004 25.4129 218.414 26.0911C218.824 26.7504 219.495 27.3532 220.446 27.8807C221.396 28.4082 222.98 28.9922 225.254 29.595C226.391 29.9529 227.509 30.3297 228.627 30.763C229.745 31.1774 230.751 31.7049 231.646 32.3454C232.54 32.9859 233.267 33.8336 233.845 34.8885C234.404 35.9435 234.702 37.2622 234.702 38.8634C234.702 41.6515 233.715 43.8556 231.72 45.5133C229.726 47.1711 227.173 48 224.024 48C222.142 48 220.352 47.7739 218.619 47.3407C216.886 46.9074 215.582 46.3799 214.65 45.7582C213.998 45.2684 213.662 44.7598 213.662 44.2323C213.662 43.9309 213.755 43.5918 213.96 43.2339C214.147 42.876 214.501 42.3673 214.967 41.708C216.01 42.5934 217.352 43.3469 218.955 43.9874C220.576 44.6279 222.216 44.9482 223.875 44.9482C226.055 44.9482 227.788 44.4207 229.074 43.3846C230.36 42.3485 231.012 40.898 231.012 39.0518C231.012 38.0345 230.789 37.1303 230.36 36.3391C229.931 35.5479 229.223 34.8697 228.236 34.2857C227.248 33.7206 225.533 33.1177 223.092 32.4961C220.427 31.7425 218.545 31.0078 217.427 30.2732C216.308 29.5385 215.488 28.6531 214.948 27.5981C214.408 26.5432 214.128 25.281 214.128 23.8305C214.128 22.1538 214.575 20.7033 215.47 19.46C216.364 18.2166 217.594 17.2559 219.16 16.5777C220.725 15.8995 222.458 15.5604 224.341 15.5604C226.223 15.5604 227.77 15.8053 229.261 16.2951C230.751 16.7849 231.963 17.4443 232.932 18.2732C233.752 18.8948 234.18 19.5353 234.18 20.1947C234.18 20.5526 234.087 20.9294 233.882 21.3626C233.677 21.7959 233.454 22.2292 233.193 22.719H232.596C230.64 20.0628 227.9 18.7441 224.415 18.7441V18.7253Z" fill="#2A2829"/>
<path d="M250.357 18.7253C248.437 18.7253 246.853 19.1774 245.604 20.0816C244.356 20.9859 243.741 22.2292 243.741 23.8305C243.741 24.6782 243.946 25.4129 244.356 26.0911C244.766 26.7504 245.437 27.3532 246.387 27.8807C247.337 28.4082 248.922 28.9922 251.195 29.595C252.332 29.9529 253.45 30.3297 254.568 30.763C255.686 31.1774 256.693 31.7049 257.587 32.3454C258.482 32.9859 259.209 33.8336 259.786 34.8885C260.345 35.9435 260.644 37.2622 260.644 38.8634C260.644 41.6515 259.656 43.8556 257.662 45.5133C255.668 47.1711 253.115 48 249.965 48C248.083 48 246.294 47.7739 244.561 47.3407C242.828 46.9074 241.523 46.3799 240.591 45.7582C239.939 45.2684 239.604 44.7598 239.604 44.2323C239.604 43.9309 239.697 43.5918 239.902 43.2339C240.088 42.876 240.442 42.3673 240.908 41.708C241.952 42.5934 243.293 43.3469 244.896 43.9874C246.517 44.6279 248.157 44.9482 249.816 44.9482C251.996 44.9482 253.73 44.4207 255.016 43.3846C256.301 42.3485 256.954 40.898 256.954 39.0518C256.954 38.0345 256.73 37.1303 256.301 36.3391C255.873 35.5479 255.165 34.8697 254.177 34.2857C253.189 33.7206 251.475 33.1177 249.033 32.4961C246.368 31.7425 244.486 31.0078 243.368 30.2732C242.25 29.5385 241.43 28.6531 240.889 27.5981C240.349 26.5432 240.069 25.281 240.069 23.8305C240.069 22.1538 240.517 20.7033 241.411 19.46C242.306 18.2166 243.536 17.2559 245.101 16.5777C246.667 15.8995 248.4 15.5604 250.282 15.5604C252.164 15.5604 253.711 15.8053 255.202 16.2951C256.693 16.7849 257.904 17.4443 258.873 18.2732C259.693 18.8948 260.122 19.5353 260.122 20.1947C260.122 20.5526 260.029 20.9294 259.824 21.3626C259.619 21.7959 259.395 22.2292 259.134 22.719H258.538C256.581 20.0628 253.841 18.7441 250.357 18.7441V18.7253Z" fill="#2A2829"/>
</svg>
