<svg width="233" height="48" viewBox="0 0 233 48" fill="none" xmlns="http://www.w3.org/2000/svg">
<path d="M33.2822 35.4319C31.6249 32.5072 30.3576 30.4718 29.4412 29.0688C35.0955 26.9148 39.0535 21.9152 39.0535 15.3545C39.0535 3.75463 29.6752 0 20.4919 0H0V47.2293H9.59277V30.2149H14.2527C14.9936 30.2149 15.715 30.2149 16.4364 30.2544C17.5672 30.3335 19.4975 30.8473 20.9208 33.1593C22.4026 35.6295 23.1825 37.3092 25.3857 41.0243C27.8229 45.1149 30.2601 48 34.5886 48C40.0284 48 40.7693 42.6447 40.7693 42.6447C37.3572 41.5183 34.92 38.317 33.2822 35.4121V35.4319ZM21.5057 22.5871H9.59277V8.49732H21.5057C25.8927 8.49732 29.0513 10.928 29.0513 15.5718C29.0513 19.9391 25.8927 22.5871 21.5057 22.5871ZM52.1753 0.0197612V47.2491H61.7681V7.23261C61.7681 -0.296418 52.1753 0.0197612 52.1753 0.0197612ZM105.384 0.0197612V26.6184C105.384 33.9103 103.044 38.9889 95.3428 38.9889C87.6413 38.9889 85.516 33.9103 85.516 26.6381V7.23261C85.516 -0.296418 75.9233 0.0197612 75.9233 0.0197612V27.31C75.9233 39.3248 81.4216 48 95.3428 48C109.264 48 114.977 38.4158 114.977 27.31V0.0197612H105.384Z" fill="white"/>
<path d="M173.047 13.5334C173.047 23.7027 166.267 28.7873 152.708 28.7873H146.312V48H141.767V0.830386C146.389 0.453847 150.19 0.26524 153.17 0.264558C159.898 0.264558 164.892 1.35938 168.154 3.54903C171.416 5.73869 173.047 9.06682 173.047 13.5334ZM168.27 13.957C168.27 10.5211 167.076 7.95528 164.688 6.2595C162.3 4.56371 158.538 3.71752 153.401 3.72093C151.009 3.69864 148.616 3.79325 146.235 4.00436V25.331H153.477C158.459 25.331 162.17 24.3893 164.61 22.5059C167.05 20.6225 168.27 17.7743 168.27 13.9611V13.957Z" fill="white"/>
<path d="M181.903 18.8336C182.826 17.519 184.082 16.4286 185.564 15.6556C187.023 14.8694 188.685 14.4547 190.378 14.4543C191.66 14.4076 192.936 14.6251 194.114 15.0908C194.526 15.229 194.883 15.4783 195.138 15.806C195.392 16.1336 195.532 16.5242 195.54 16.9264C195.514 17.4424 195.37 17.9476 195.117 18.409C194.852 18.948 194.501 19.4477 194.075 19.8916C193.493 19.3323 192.783 18.8983 191.996 18.6208C191.125 18.3655 190.214 18.2465 189.3 18.2688C187.427 18.2588 185.611 18.8594 184.176 19.9632C183.501 20.3944 182.945 20.9631 182.55 21.6246C182.156 22.2861 181.934 23.0224 181.902 23.7757V48H177.512V15.0202H177.819C178.367 14.9906 178.915 15.0631 179.432 15.2331C179.948 15.4032 180.422 15.6673 180.824 16.0096C181.202 16.3896 181.492 16.8355 181.678 17.3208C181.863 17.806 181.94 18.3206 181.903 18.8336Z" fill="white"/>
<path d="M232.751 30.6281C232.751 35.9951 231.326 40.2325 228.475 43.3403C225.624 46.4481 221.579 48.0013 216.341 48C211.152 48 207.133 46.47 204.285 43.4099C201.437 40.3498 200.012 36.1598 200.009 30.8399C199.946 27.6716 200.672 24.5319 202.129 21.6587C203.391 19.1355 205.426 17.0026 207.986 15.5195C210.598 14.0761 213.603 13.3413 216.652 13.4004C221.787 13.4004 225.755 14.9305 228.556 17.9905C231.357 21.0506 232.756 25.2631 232.751 30.6281ZM228.051 30.6281C228.051 26.0619 227.075 22.6249 225.124 20.3173C223.172 18.0096 220.296 16.8561 216.494 16.8568C214.823 16.7808 213.157 17.0786 211.64 17.7247C210.123 18.3707 208.801 19.3455 207.787 20.5649C205.737 23.0363 204.711 26.3907 204.711 30.6281C204.711 35.1015 205.7 38.55 207.677 40.9737C208.687 42.1845 210.005 43.1495 211.516 43.7838C213.028 44.4181 214.686 44.7022 216.345 44.6111C220.197 44.6111 223.112 43.4222 225.089 41.0443C227.066 38.6663 228.054 35.1943 228.051 30.6281Z" fill="white"/>
</svg>
