<svg width="110" height="65" viewBox="0 0 110 65" fill="none" xmlns="http://www.w3.org/2000/svg">
<path d="M1.31881 59.2115H5.39081V55.5731C5.42244 55.5773 5.45448 55.5773 5.48611 55.5731H5.70529C5.7894 55.573 5.87321 55.5829 5.95497 55.6026C6.04718 55.6252 6.13443 55.6646 6.21227 55.7189C6.30014 55.7822 6.37087 55.8664 6.41811 55.9638C6.48046 56.0981 6.50861 56.2458 6.50006 56.3936V64.1945H5.39081V60.2216H1.31881V64.1945H0.193359V55.6036C0.227542 55.6077 0.262099 55.6077 0.296281 55.6036H0.515462C0.604909 55.6035 0.694084 55.6134 0.781338 55.6331C0.874107 55.654 0.961653 55.6936 1.03864 55.7494C1.12154 55.8139 1.18705 55.8981 1.22923 55.9943C1.28755 56.1298 1.31396 56.2768 1.30642 56.4241L1.31881 59.2115ZM16.0049 59.8262C16.0089 60.4125 15.9382 60.9969 15.7943 61.5653C15.6671 62.0807 15.444 62.5676 15.1368 63.0005C14.8338 63.4148 14.4362 63.7507 13.977 63.9801C13.4428 64.2377 12.8545 64.3629 12.2617 64.3451C11.6786 64.3613 11.1004 64.2343 10.5778 63.9754C10.1257 63.7404 9.73679 63.4001 9.44377 62.9833C9.14257 62.5469 8.92688 62.0573 8.80814 61.5405C8.67331 60.9788 8.60707 60.4029 8.61088 59.8252C8.6082 59.2566 8.68192 58.6903 8.83006 58.1413C8.95982 57.6309 9.19053 57.1517 9.50857 56.7319C9.8156 56.3209 10.2157 55.9884 10.6759 55.7618C11.2107 55.5063 11.7989 55.3825 12.3913 55.4006C12.9609 55.3848 13.5261 55.504 14.0409 55.7484C14.4856 55.9678 14.8715 56.2902 15.1663 56.689C15.4731 57.1085 15.6937 57.5846 15.8153 58.0899C15.9494 58.6587 16.0131 59.2418 16.0049 59.8262ZM14.8413 59.8262C14.8427 59.3934 14.7995 58.9617 14.7127 58.5378C14.6349 58.1542 14.4894 57.7876 14.2829 57.4552C14.0947 57.1441 13.8282 56.8878 13.5101 56.7119C13.1496 56.5252 12.7475 56.4337 12.3417 56.446C11.9193 56.4317 11.5001 56.5231 11.1219 56.7119C10.8024 56.8887 10.5322 57.1426 10.3357 57.4504C10.1258 57.7811 9.98003 58.1484 9.90595 58.533C9.81909 58.9569 9.77598 59.3887 9.7773 59.8214C9.77568 60.2655 9.81878 60.7086 9.90595 61.1441C9.98534 61.5421 10.1306 61.9241 10.3357 62.2743C10.5264 62.595 10.7936 62.8635 11.1134 63.0557C11.483 63.2449 11.8922 63.3436 12.3074 63.3436C12.7226 63.3436 13.1319 63.2449 13.5015 63.0557C13.8224 62.8637 14.0908 62.5952 14.2829 62.2743C14.4881 61.9241 14.6333 61.5421 14.7127 61.1441C14.7988 60.714 14.8419 60.2763 14.8413 59.8376V59.8262ZM19.5242 56.5613H16.7997C16.8003 56.5211 16.7915 56.4813 16.774 56.4451C16.7692 56.4064 16.7692 56.3674 16.774 56.3288V56.2001C16.7739 56.1192 16.7909 56.0391 16.8237 55.9651C16.8565 55.891 16.9045 55.8247 16.9645 55.7704C17.1293 55.6344 17.3406 55.5681 17.5535 55.5855H23.4361C23.4314 55.6241 23.4314 55.6631 23.4361 55.7017C23.4338 55.7335 23.4338 55.7653 23.4361 55.797C23.4536 55.8987 23.4459 56.0032 23.4137 56.1012C23.3815 56.1992 23.3257 56.2878 23.2512 56.3593C23.172 56.4313 23.0789 56.4863 22.9776 56.5211C22.8764 56.5558 22.7691 56.5695 22.6623 56.5613H20.6573V64.1555H19.5232L19.5242 56.5613ZM26.0186 59.1858H28.9271V60.1692H26.0091V63.1758H29.2587C29.3685 63.1651 29.4793 63.1771 29.5842 63.211C29.6891 63.2449 29.7859 63.3001 29.8686 63.3731C29.993 63.5068 30.0594 63.6842 30.0535 63.8667V63.962C30.0495 63.9905 30.0495 64.0193 30.0535 64.0478V64.1383H24.9008V55.5474H29.8305C29.8461 55.5902 29.8548 55.6352 29.8562 55.6808V55.818C29.8611 55.9954 29.8034 56.1687 29.6933 56.3078C29.6105 56.3833 29.5123 56.44 29.4056 56.4741C29.2989 56.5081 29.186 56.5187 29.0748 56.5051H26.0091L26.0186 59.1858ZM31.744 55.5731C31.7757 55.5773 31.8077 55.5773 31.8393 55.5731H32.0576C32.1417 55.573 32.2255 55.5829 32.3072 55.6026C32.3994 55.6252 32.4867 55.6646 32.5645 55.7189C32.6524 55.7822 32.7231 55.8664 32.7704 55.9638C32.8327 56.0981 32.8609 56.2458 32.8523 56.3936V63.1806H35.8246C35.9311 63.1703 36.0386 63.1825 36.1401 63.2165C36.2416 63.2505 36.3347 63.3055 36.4136 63.3779C36.5335 63.5094 36.598 63.6821 36.5937 63.8601C36.5961 63.8988 36.5961 63.9376 36.5937 63.9763C36.5917 64.0065 36.5917 64.0367 36.5937 64.0668V64.1574H31.7364L31.744 55.5731ZM37.9383 62.5402C38.2352 62.7791 38.5647 62.9742 38.917 63.1196C39.3012 63.289 39.7169 63.3754 40.1368 63.3731C40.4199 63.3816 40.7023 63.338 40.9697 63.2444C41.1696 63.1732 41.3514 63.059 41.5024 62.9099C41.6324 62.7781 41.7303 62.6179 41.7883 62.442C41.9158 62.0618 41.9084 61.6492 41.7673 61.2737C41.6975 61.0962 41.5891 60.9364 41.45 60.8058C41.2923 60.6641 41.1123 60.5495 40.9173 60.4666C40.6778 60.3629 40.4329 60.2725 40.1835 60.1959C39.8749 60.1057 39.5712 59.9998 39.2734 59.8786C38.9955 59.7721 38.7338 59.6274 38.4958 59.4488C38.267 59.2695 38.0808 59.0416 37.9507 58.7817C37.8038 58.4753 37.7332 58.1379 37.7448 57.7983C37.7367 57.4474 37.8088 57.0993 37.9554 56.7805C38.087 56.4938 38.2827 56.2412 38.5272 56.042C38.7829 55.845 39.0741 55.699 39.3849 55.6122C39.7388 55.5063 40.1066 55.4542 40.476 55.4578C40.8185 55.4625 41.1596 55.5028 41.4938 55.5779C41.8194 55.6474 42.1324 55.7663 42.422 55.9305C42.549 56.0088 42.6659 56.1026 42.7698 56.2097C42.8139 56.2544 42.8487 56.3074 42.8723 56.3656C42.8958 56.4238 42.9077 56.4861 42.907 56.5489C42.9008 56.6687 42.859 56.7838 42.787 56.8796C42.6983 57.0093 42.5974 57.1302 42.4858 57.2408L42.1999 57.0092C42.0674 56.9053 41.9232 56.8174 41.7702 56.7471C41.5827 56.6581 41.3871 56.5876 41.186 56.5365C40.9549 56.4742 40.7163 56.4437 40.477 56.446C40.2236 56.4383 39.9708 56.4747 39.7299 56.5537C39.5489 56.6149 39.3823 56.7122 39.24 56.8396C39.1134 56.9555 39.0213 57.1043 38.9742 57.2694C38.9189 57.4222 38.8899 57.5833 38.8884 57.7458C38.8835 57.9371 38.9278 58.1265 39.017 58.2957C39.1094 58.4569 39.2372 58.595 39.3906 58.6998C39.5747 58.8258 39.7722 58.931 39.9795 59.0133C40.2114 59.108 40.4776 59.2033 40.7781 59.2992C41.0723 59.3902 41.359 59.5036 41.6358 59.6384C41.8973 59.7638 42.1378 59.9291 42.3486 60.1283C42.5562 60.3282 42.7237 60.566 42.8422 60.8287C42.9729 61.1337 43.0359 61.4633 43.0271 61.795C43.035 62.1802 42.965 62.563 42.8213 62.9204C42.6875 63.2348 42.4849 63.5151 42.2285 63.7409C41.9651 63.9714 41.6545 64.1415 41.3185 64.2393C40.9384 64.3552 40.5427 64.4118 40.1454 64.4071C39.7112 64.4086 39.2785 64.3568 38.8569 64.2527C38.5149 64.1828 38.1907 64.044 37.904 63.8448C37.8145 63.799 37.738 63.7313 37.6817 63.6479C37.6254 63.5646 37.5911 63.4685 37.5819 63.3683C37.5919 63.2405 37.6317 63.1168 37.6982 63.0072C37.7593 62.8437 37.8369 62.687 37.9297 62.5392L37.9383 62.5402ZM55.1202 64.1164C55.0201 64.1607 54.9165 64.1967 54.8105 64.2241C54.7068 64.2525 54.5997 64.267 54.4922 64.267C54.3298 64.2716 54.1685 64.2397 54.0201 64.1738C53.8717 64.1078 53.7399 64.0094 53.6345 63.8858L52.8274 62.9624C52.4879 63.3417 52.0918 63.6663 51.6533 63.9249C51.199 64.177 50.6862 64.3045 50.1667 64.2946C49.7403 64.3056 49.3157 64.2341 48.9164 64.084C48.5949 63.9599 48.3027 63.77 48.0588 63.5265C47.834 63.3008 47.665 63.0257 47.5651 62.7232C47.462 62.4128 47.4099 62.0877 47.4107 61.7607C47.4056 61.4059 47.4667 61.0533 47.5909 60.721C47.8149 60.1302 48.2194 59.6251 48.7468 59.2773C49.0032 59.1063 49.2765 58.9622 49.5625 58.8475C49.3867 58.6279 49.2421 58.3852 49.1327 58.1261C49.0391 57.8735 48.9939 57.6054 48.9993 57.3361C48.997 57.0612 49.0573 56.7894 49.1756 56.5413C49.2925 56.3096 49.4545 56.1035 49.6521 55.9352C49.861 55.764 50.0998 55.6328 50.3563 55.5483C50.633 55.4573 50.9228 55.4123 51.214 55.4149C51.5217 55.4092 51.8284 55.4497 52.1241 55.535C52.3495 55.6072 52.5648 55.7081 52.7645 55.8352C52.8366 55.8717 52.8992 55.9247 52.9473 55.9897C52.9953 56.0547 53.0275 56.1301 53.0413 56.2098C53.0551 56.2895 53.0501 56.3713 53.0267 56.4487C53.0033 56.5261 52.9621 56.597 52.9065 56.6557C52.8118 56.7827 52.7302 56.886 52.6616 56.9654H52.5367C52.3648 56.7988 52.1727 56.6545 51.965 56.5356C51.7435 56.4211 51.4965 56.365 51.2474 56.3726C50.9627 56.3651 50.6844 56.4579 50.4612 56.6347C50.3509 56.7274 50.264 56.8446 50.2074 56.9771C50.1508 57.1095 50.1261 57.2533 50.1353 57.3971C50.1338 57.6157 50.1868 57.8312 50.2896 58.0241C50.402 58.2382 50.5344 58.4411 50.6851 58.6302C51.012 59.06 51.3636 59.4879 51.7505 59.9491C52.1374 60.4103 52.4938 60.8554 52.8245 61.268C52.9468 60.9633 53.0425 60.6486 53.1104 60.3274C53.1809 59.9823 53.2198 59.6314 53.2267 59.2792V58.5997H55.2889V59.4288H54.1663C54.1493 59.911 54.0816 60.3902 53.9643 60.8582C53.8442 61.2917 53.674 61.7097 53.4573 62.1037L55.1202 64.1164ZM50.2144 63.3607C50.6033 63.3717 50.9875 63.2726 51.3227 63.0748C51.6656 62.8415 51.9663 62.5515 52.2118 62.2172C51.8506 61.7874 51.5028 61.3595 51.1635 60.9287C50.8242 60.498 50.4764 60.0711 50.1238 59.6403C49.9052 59.7332 49.6954 59.8455 49.4968 59.9758C49.3051 60.0915 49.1328 60.2366 48.986 60.4056C48.8396 60.5759 48.7221 60.7691 48.6382 60.9773C48.5503 61.2016 48.5066 61.4407 48.5095 61.6816C48.4971 62.117 48.6507 62.5408 48.9393 62.8671C49.1022 63.0339 49.2986 63.1641 49.5156 63.2492C49.7327 63.3343 49.9653 63.3723 50.1982 63.3607H50.2144ZM65.2102 57.9441C65.2139 58.2786 65.1601 58.6113 65.051 58.9275C64.9079 59.3076 64.6736 59.6466 64.3687 59.9148C64.0637 60.183 63.6975 60.3722 63.3023 60.4656L65.6476 64.1764C65.5531 64.2183 65.4534 64.2471 65.3512 64.2622C65.2488 64.2786 65.1452 64.2872 65.0415 64.2879C64.8595 64.2944 64.6792 64.2514 64.5197 64.1637C64.3601 64.0759 64.2273 63.9466 64.1352 63.7895L62.1464 60.6448H61.0028V64.1545H59.8946V55.6112C60.1995 55.5683 60.5349 55.5378 60.8866 55.5207C61.2382 55.5035 61.5784 55.495 61.9044 55.495C62.7871 55.4204 63.6705 55.6298 64.4259 56.0925C64.6915 56.3178 64.8993 56.6035 65.032 56.9257C65.1646 57.2478 65.2182 57.597 65.1883 57.9441H65.2102ZM64.0457 58.0041C64.0537 57.7346 64.004 57.4666 63.8998 57.2179C63.8064 57.0182 63.6571 56.8497 63.4701 56.7328C63.2659 56.6099 63.039 56.5295 62.803 56.4965C62.5193 56.4516 62.2325 56.4299 61.9453 56.4317H61.4088C61.2648 56.4352 61.1213 56.4483 60.979 56.4708H61.0048V59.6966H61.9282C62.2166 59.6993 62.5044 59.6689 62.7858 59.606C63.0257 59.5526 63.2525 59.4518 63.4529 59.3097C63.6373 59.1712 63.7849 58.9896 63.8827 58.7808C63.9875 58.5353 64.0373 58.2699 64.0285 58.0032L64.0457 58.0041ZM68.4531 59.1858H71.3568V60.1692H68.4521V63.1758H71.7046C71.8138 63.1648 71.9241 63.1767 72.0284 63.2106C72.1328 63.2446 72.2289 63.2999 72.3107 63.3731C72.4368 63.5061 72.5053 63.6835 72.5013 63.8667C72.5036 63.8985 72.5036 63.9303 72.5013 63.962C72.4992 63.9906 72.4992 64.0192 72.5013 64.0478V64.1383H67.3458V55.5474H72.2897C72.3053 55.5902 72.314 55.6352 72.3155 55.6808V55.818C72.3209 55.9962 72.2613 56.1704 72.1477 56.3078C72.0657 56.3833 71.9682 56.44 71.8621 56.4741C71.756 56.5081 71.6437 56.5187 71.5331 56.5051H68.4617L68.4531 59.1858ZM73.9212 62.5402C74.2181 62.7791 74.5477 62.9742 74.8999 63.1196C75.2858 63.289 75.703 63.3753 76.1245 63.3731C76.4064 63.3813 76.6874 63.3377 76.9535 63.2444C77.1534 63.1732 77.3353 63.059 77.4862 62.9099C77.6163 62.7781 77.7141 62.6179 77.7721 62.442C77.9037 62.0637 77.9037 61.652 77.7721 61.2737C77.7009 61.0957 77.5909 60.9359 77.45 60.8058C77.2931 60.6632 77.1129 60.5485 76.9173 60.4666C76.6779 60.3628 76.4329 60.2725 76.1835 60.1959C75.875 60.1053 75.5712 59.9991 75.2735 59.8776C74.9956 59.7711 74.7339 59.6265 74.4958 59.4478C74.2671 59.2685 74.0809 59.0407 73.9507 58.7808C73.8039 58.4743 73.7333 58.1369 73.7449 57.7973C73.7367 57.4465 73.8088 57.0984 73.9555 56.7795C74.0871 56.4929 74.2827 56.2402 74.5273 56.041C74.7827 55.8436 75.074 55.6977 75.3849 55.6112C75.7372 55.5053 76.1035 55.4533 76.4713 55.4568C76.8139 55.4611 77.155 55.5014 77.4891 55.5769C77.8151 55.645 78.1283 55.764 78.4173 55.9295C78.5444 56.0078 78.6612 56.1016 78.7651 56.2087C78.8105 56.2527 78.8464 56.3055 78.8708 56.3638C78.8952 56.4221 78.9076 56.4848 78.9071 56.548C78.899 56.6681 78.8556 56.7832 78.7823 56.8787C78.6938 57.0082 78.5933 57.1292 78.4821 57.2398L78.2029 57.0083C78.0696 56.9055 77.9254 56.8177 77.7731 56.7462C77.587 56.6579 77.393 56.5873 77.1937 56.5356C76.9612 56.4735 76.7215 56.4431 76.4809 56.4451C76.2275 56.4375 75.9747 56.4739 75.7337 56.5527C75.5528 56.614 75.3862 56.7112 75.2439 56.8386C75.1201 56.9569 75.0286 57.1048 74.978 57.2684C74.9227 57.4212 74.8937 57.5824 74.8923 57.7449C74.8873 57.9362 74.9316 58.1255 75.0209 58.2948C75.1133 58.456 75.241 58.5941 75.3945 58.6988C75.5794 58.8256 75.7783 58.9308 75.9872 59.0123C76.215 59.1076 76.4809 59.2029 76.782 59.2982C77.0761 59.3892 77.3629 59.5026 77.6397 59.6375C77.9012 59.7629 78.1417 59.9281 78.3525 60.1273C78.5601 60.3273 78.7276 60.565 78.8461 60.8277C78.9768 61.1327 79.0398 61.4624 79.031 61.794C79.0389 62.1792 78.9689 62.562 78.8251 62.9195C78.6926 63.2336 78.4914 63.5139 78.2362 63.74C77.9711 63.9706 77.6589 64.1407 77.3214 64.2384C76.9428 64.3538 76.5488 64.4103 76.153 64.4061C75.7103 64.4097 75.2688 64.3578 74.8389 64.2517C74.4973 64.1804 74.1734 64.0417 73.8859 63.8439C73.7965 63.798 73.7201 63.7302 73.6638 63.6469C73.6075 63.5636 73.5731 63.4675 73.5638 63.3674C73.5738 63.2396 73.6137 63.1159 73.6801 63.0062C73.7401 62.843 73.8164 62.6862 73.9079 62.5383L73.9212 62.5402ZM88.0193 59.8252C88.0234 60.4115 87.9526 60.996 87.8087 61.5644C87.6815 62.0798 87.4584 62.5666 87.1512 62.9995C86.8483 63.4139 86.4506 63.7498 85.9914 63.9792C85.4574 64.2372 84.8689 64.3625 84.2761 64.3442C83.693 64.3603 83.1149 64.2334 82.5922 63.9744C82.1401 63.7394 81.7512 63.3992 81.4582 62.9824C81.157 62.546 80.9413 62.0564 80.8226 61.5396C80.6877 60.9779 80.6215 60.4019 80.6253 59.8243C80.6226 59.2557 80.6963 58.6893 80.8445 58.1404C80.9761 57.6306 81.2066 57.1517 81.523 56.7309C81.8315 56.32 82.2337 55.9887 82.6961 55.7646C83.2249 55.5117 83.8063 55.3879 84.3923 55.4035C84.9604 55.3881 85.524 55.5073 86.0372 55.7513C86.4819 55.9706 86.8678 56.2931 87.1626 56.6919C87.4693 57.111 87.6899 57.5868 87.8116 58.0918C87.9459 58.6602 88.0099 59.243 88.0022 59.8271L88.0193 59.8252ZM86.8548 59.8252C86.8561 59.3925 86.813 58.9607 86.7262 58.5368C86.6484 58.1533 86.5029 57.7867 86.2964 57.4542C86.1097 57.1445 85.8444 56.8897 85.5273 56.7157C85.1669 56.529 84.7647 56.4375 84.359 56.4498C83.9366 56.4355 83.5173 56.5269 83.1392 56.7157C82.8197 56.8925 82.5495 57.1464 82.353 57.4542C82.1431 57.785 81.9973 58.1522 81.9232 58.5368C81.8364 58.9607 81.7932 59.3925 81.7946 59.8252C81.7929 60.2693 81.836 60.7125 81.9232 61.1479C82.0008 61.5465 82.1461 61.9288 82.353 62.2781C82.5408 62.5995 82.8066 62.8683 83.1259 63.0596C83.4955 63.2488 83.9047 63.3474 84.3199 63.3474C84.7351 63.3474 85.1444 63.2488 85.514 63.0596C85.8358 62.8687 86.1045 62.6 86.2954 62.2781C86.5024 61.9288 86.6478 61.5465 86.7252 61.1479C86.8058 60.7159 86.8432 60.277 86.8367 59.8376L86.8548 59.8252ZM95.4458 57.9317C95.4508 58.259 95.3986 58.5848 95.2914 58.8942C95.1913 59.1605 95.0459 59.4074 94.8616 59.6241C94.6932 59.8255 94.4929 59.9981 94.2689 60.1349C94.044 60.2715 93.7989 60.3715 93.5427 60.4313L95.8879 64.1431C95.7935 64.1849 95.6938 64.2138 95.5916 64.2288C95.4907 64.2454 95.3888 64.254 95.2866 64.2546C95.1041 64.2612 94.9232 64.2183 94.763 64.1306C94.6028 64.0429 94.4693 63.9135 94.3765 63.7562L92.3696 60.6457H91.2527V64.1555H90.1359V55.6122C90.4453 55.569 90.7759 55.5388 91.1279 55.5216C91.4799 55.5045 91.8077 55.4946 92.1114 55.4921C92.9953 55.4165 93.8803 55.6259 94.6367 56.0896C94.9057 56.3139 95.1171 56.5995 95.253 56.9223C95.389 57.2451 95.4456 57.5958 95.4181 57.945L95.4458 57.9317ZM94.2774 57.9917C94.2877 57.7221 94.2379 57.4535 94.1316 57.2055C94.0374 57.0063 93.8883 56.838 93.7018 56.7205C93.4973 56.5983 93.2706 56.518 93.0348 56.4841C92.7511 56.4396 92.4643 56.418 92.1771 56.4193H91.6406C91.4966 56.4225 91.3531 56.4353 91.2108 56.4574H91.2365V59.6832H92.1561C92.4446 59.6862 92.7323 59.6558 93.0138 59.5927C93.254 59.5402 93.4809 59.4394 93.6809 59.2963C93.8675 59.1602 94.0156 58.978 94.1107 58.7674C94.215 58.527 94.2663 58.267 94.2612 58.0051L94.2774 57.9917ZM99.1699 56.5489H96.4549L96.4292 56.4327C96.4245 56.3941 96.4245 56.355 96.4292 56.3164V56.1878C96.4292 56.1068 96.4462 56.0267 96.479 55.9527C96.5119 55.8787 96.5598 55.8124 96.6198 55.758C96.7843 55.6223 96.9952 55.556 97.2078 55.5731H103.063C103.058 55.6117 103.058 55.6507 103.063 55.6894C103.061 55.7211 103.061 55.7529 103.063 55.7847C103.08 55.8863 103.073 55.9908 103.04 56.0888C103.008 56.1868 102.952 56.2755 102.878 56.3469C102.799 56.4189 102.706 56.474 102.604 56.5087C102.503 56.5434 102.396 56.5571 102.289 56.5489H100.27V64.1431H99.1261L99.1699 56.5489ZM104.294 62.5278C104.592 62.7653 104.922 62.9606 105.274 63.1082C105.66 63.2776 106.077 63.364 106.498 63.3617C106.781 63.3695 107.064 63.3259 107.331 63.233C107.529 63.1605 107.71 63.0461 107.86 62.8976C107.99 62.7657 108.088 62.6056 108.146 62.4297C108.277 62.0513 108.277 61.6397 108.146 61.2613C108.075 61.0833 107.965 60.9235 107.824 60.7934C107.667 60.6508 107.487 60.5361 107.291 60.4542C107.052 60.3505 106.807 60.2601 106.557 60.1835C106.244 60.0882 105.939 59.9863 105.647 59.8662C105.369 59.7597 105.108 59.615 104.87 59.4364C104.641 59.2571 104.455 59.0292 104.325 58.7693C104.178 58.4629 104.107 58.1255 104.119 57.7859C104.111 57.435 104.183 57.0869 104.329 56.7681C104.46 56.4808 104.656 56.2279 104.901 56.0296C105.156 55.8318 105.448 55.6858 105.759 55.5998C106.111 55.4939 106.477 55.4418 106.845 55.4454C107.188 55.4496 107.529 55.4899 107.863 55.5655C108.189 55.6335 108.502 55.7525 108.791 55.9181C108.918 55.9963 109.035 56.0901 109.139 56.1973C109.184 56.2413 109.22 56.2941 109.245 56.3524C109.269 56.4107 109.281 56.4733 109.281 56.5365C109.273 56.6567 109.229 56.7717 109.156 56.8672C109.069 56.9978 108.968 57.1189 108.856 57.2284C108.787 57.1684 108.697 57.0912 108.577 56.9968C108.443 56.8941 108.299 56.8062 108.147 56.7348C107.961 56.6457 107.766 56.5751 107.566 56.5242C107.334 56.4621 107.094 56.4316 106.854 56.4336C106.6 56.4265 106.348 56.4629 106.107 56.5413C105.927 56.6015 105.761 56.6989 105.621 56.8272C105.495 56.9441 105.402 57.0923 105.351 57.257C105.297 57.41 105.269 57.5711 105.269 57.7335C105.265 57.9242 105.308 58.113 105.394 58.2833C105.486 58.4445 105.614 58.5827 105.767 58.6874C105.952 58.8142 106.151 58.9194 106.36 59.0009C106.592 59.0962 106.854 59.1915 107.155 59.2868C107.449 59.3778 107.736 59.4912 108.012 59.626C108.274 59.7514 108.514 59.9167 108.725 60.1159C108.933 60.3159 109.1 60.5536 109.219 60.8163C109.352 61.1208 109.417 61.4505 109.41 61.7826C109.416 62.1681 109.344 62.5509 109.199 62.908C109.068 63.223 108.866 63.5037 108.61 63.7285C108.346 63.9581 108.036 64.1281 107.7 64.2269C107.32 64.3422 106.924 64.3987 106.527 64.3947C106.084 64.398 105.643 64.3462 105.213 64.2403C104.871 64.1679 104.548 64.0294 104.26 63.8324C104.171 63.7865 104.095 63.7187 104.039 63.6353C103.984 63.5519 103.95 63.4558 103.942 63.3559C103.95 63.2284 103.989 63.1046 104.054 62.9948C104.11 62.8366 104.182 62.6844 104.268 62.5402L104.294 62.5278ZM31.8079 33.5844C30.2403 30.8437 29.0443 28.9407 28.1609 27.6313C30.8317 26.7122 33.1475 24.9795 34.7831 22.6767C36.4186 20.3739 37.2917 17.6165 37.2798 14.792C37.2798 3.92825 28.3706 0.414677 19.6681 0.414677H0.193359V44.6579H9.29987V28.7224H13.7254C14.4297 28.7224 15.1168 28.7224 15.8086 28.752C16.6881 28.8184 17.5373 29.1019 18.2803 29.5773C19.0232 30.0526 19.6366 30.7048 20.0655 31.4755C21.4616 33.7817 22.2135 35.3417 24.3052 38.8505C26.6123 42.6738 28.9404 45.3793 33.0382 45.3793C38.1927 45.3793 38.9094 40.3619 38.9094 40.3619C35.6741 39.2936 33.3631 36.2909 31.8079 33.5844ZM20.6401 21.5571H9.3094V8.3357H20.6268C24.7931 8.3357 27.7873 10.6123 27.7873 14.9721C27.7873 19.0699 24.7931 21.5571 20.6268 21.5571H20.6401ZM49.7474 0.419446V44.6645H58.8539V7.16737C58.8406 0.115445 49.735 0.406105 49.735 0.406105L49.7474 0.419446ZM100.254 0.419446V25.3327C100.254 32.1664 98.034 36.9303 90.7248 36.9303C83.4156 36.9303 81.3696 32.1445 81.3696 25.3242V7.16737C81.3696 0.115445 72.263 0.406105 72.263 0.406105V25.9731C72.263 37.2276 77.49 45.3583 90.7076 45.3583C103.925 45.3583 109.346 36.3814 109.346 25.9731V0.406105L100.254 0.419446Z" fill="white"/>
</svg>
